<?xml version="1.0" encoding="utf-8"?><!DOCTYPE svg PUBLIC "-//W3C//DTD SVG 1.1//EN" "http://www.w3.org/Graphics/SVG/1.1/DTD/svg11.dtd"><svg viewBox="0 0 800 800" xmlns="http://www.w3.org/2000/svg" xmlns:xlink="http://www.w3.org/1999/xlink"><style>:root>svg{display:none}:root>svg:target{display:block}</style><svg fill="none" viewBox="0 0 51 8" id="arrowR" xmlns="http://www.w3.org/2000/svg"><path d="M50.354 4.233a.5.5 0 000-.707L47.172.344a.5.5 0 10-.707.707l2.828 2.829-2.828 2.828a.5.5 0 10.707.707l3.182-3.182zM0 4.38h50v-1H0v1z" fill="#FFF064"/></svg><svg version="1.1" id="call" viewBox="0 0 512 512" xml:space="preserve" xmlns="http://www.w3.org/2000/svg"><style>.bst0{fill:#000}</style><path class="bst0" d="M337.168 289.578c-5.129-5.133-13.457-5.133-18.598 0l-16.031 16.038c-4.68 4.68-12.122 5.149-17.352 1.102 0 0-15.332-10.109-40.402-35.179s-35.175-40.414-35.175-40.414c-4.055-5.226-3.578-12.656 1.102-17.343l16.031-16.031c5.141-5.134 5.141-13.462 0-18.594l-35.34-35.343c-5.133-5.133-13.453-5.133-18.594 0-.122.125-1.906 1.906-21.309 21.32-22.602 22.594 7.293 91.82 57.574 142.118 50.289 50.281 119.527 80.164 142.121 57.578 19.394-19.406 21.184-21.203 21.305-21.32 5.141-5.133 5.141-13.461 0-18.586l-35.332-35.346z"/><path class="bst0" d="M256 0C114.614 0 0 114.617 0 256s114.614 256 256 256 256-114.617 256-256S397.386 0 256 0zm0 472c-119.102 0-216-96.898-216-216S136.898 40 256 40s216 96.898 216 216-96.898 216-216 216z"/></svg><svg fill="none" viewBox="0 0 13 10" id="checkmark" xmlns="http://www.w3.org/2000/svg"><path d="M.91 5.29l3.444 3.29 7.575-7.24" stroke="#000" stroke-linecap="round"/></svg><svg fill="none" viewBox="0 0 28 31" id="clock" xmlns="http://www.w3.org/2000/svg"><path d="M15.03 10.37a.938.938 0 00-1.875 0v5.438H7.53a.938.938 0 000 1.875h6.563a.938.938 0 00.937-.938V10.37z" fill="#000"/><path d="M11.28 1.745c0-.518.42-.937.938-.937h3.75a.938.938 0 010 1.875v1.07a13.075 13.075 0 016.72 3.072.858.858 0 01.023-.024l.663-.663-.663-.662a.938.938 0 011.326-1.326L26.688 6.8a.938.938 0 11-1.326 1.326l-.663-.663-.663.663a.95.95 0 01-.024.023 13.073 13.073 0 013.206 8.595c0 7.249-5.877 13.125-13.125 13.125C6.844 29.87.968 23.994.968 16.745c0-6.612 4.889-12.082 11.25-12.992v-1.07a.937.937 0 01-.938-.938zm2.813 3.75c-.292 0-.58.011-.867.033-5.808.442-10.383 5.295-10.383 11.217 0 6.213 5.037 11.25 11.25 11.25s11.25-5.037 11.25-11.25c0-5.922-4.576-10.775-10.384-11.217a11.42 11.42 0 00-.866-.033z" fill="#000"/><path d="M15.03 10.37a.938.938 0 00-1.875 0v5.438H7.53a.938.938 0 000 1.875h6.563a.938.938 0 00.937-.938V10.37z" stroke="#000" stroke-linecap="round" stroke-linejoin="round"/><path d="M11.28 1.745c0-.518.42-.937.938-.937h3.75a.938.938 0 010 1.875v1.07a13.075 13.075 0 016.72 3.072.858.858 0 01.023-.024l.663-.663-.663-.662a.938.938 0 011.326-1.326L26.688 6.8a.938.938 0 11-1.326 1.326l-.663-.663-.663.663a.95.95 0 01-.024.023 13.073 13.073 0 013.206 8.595c0 7.249-5.877 13.125-13.125 13.125C6.844 29.87.968 23.994.968 16.745c0-6.612 4.889-12.082 11.25-12.992v-1.07a.937.937 0 01-.938-.938zm2.813 3.75c-.292 0-.58.011-.867.033-5.808.442-10.383 5.295-10.383 11.217 0 6.213 5.037 11.25 11.25 11.25s11.25-5.037 11.25-11.25c0-5.922-4.576-10.775-10.384-11.217a11.42 11.42 0 00-.866-.033z" stroke="#000" stroke-linecap="round" stroke-linejoin="round"/></svg><svg fill="none" viewBox="0 0 41 41" id="clockContacts" xmlns="http://www.w3.org/2000/svg"><path d="M20.848 9.651a1.25 1.25 0 00-2.5 0v13.75c0 .449.24.863.63 1.086l8.75 5a1.25 1.25 0 001.24-2.17l-8.12-4.641V9.651z" fill="#000"/><path d="M20.848 40.901c11.045 0 20-8.954 20-20 0-11.045-8.955-20-20-20-11.046 0-20 8.955-20 20 0 11.046 8.954 20 20 20zm17.5-20c0 9.665-7.835 17.5-17.5 17.5s-17.5-7.835-17.5-17.5 7.835-17.5 17.5-17.5 17.5 7.835 17.5 17.5z" fill="#000"/></svg><svg fill="none" viewBox="0 0 41 31" id="email" xmlns="http://www.w3.org/2000/svg"><path d="M.848 5.975a5 5 0 015-5h30a5 5 0 015 5v20a5 5 0 01-5 5h-30a5 5 0 01-5-5v-20zm5-2.5a2.5 2.5 0 00-2.5 2.5v.542l17.5 10.5 17.5-10.5v-.542a2.5 2.5 0 00-2.5-2.5h-30zm32.5 5.957l-11.77 7.062 11.77 7.244V9.432zm-.085 17.19l-14.1-8.678-3.315 1.988-3.315-1.988-14.1 8.677a2.501 2.501 0 002.415 1.854h30a2.5 2.5 0 002.415-1.854zM3.348 23.737l11.77-7.244-11.77-7.062v14.306z" fill="#000"/></svg><svg fill="none" viewBox="0 0 21 21" id="geo" xmlns="http://www.w3.org/2000/svg"><path fill-rule="evenodd" clip-rule="evenodd" d="M0 8.657l8.553 3.333 3.758 8.806 7.806-20L0 8.657z" fill="#000"/></svg><svg fill="none" viewBox="0 0 41 41" id="geopos" xmlns="http://www.w3.org/2000/svg"><path d="M31.262 22.974c-1.31 2.654-3.083 5.3-4.9 7.676a78.682 78.682 0 01-5.514 6.425 78.706 78.706 0 01-5.514-6.425c-1.817-2.375-3.59-5.022-4.9-7.676-1.324-2.682-2.086-5.195-2.086-7.35 0-6.903 5.596-12.5 12.5-12.5 6.903 0 12.5 5.597 12.5 12.5 0 2.155-.762 4.668-2.086 7.35zm-10.414 17.65s15-14.215 15-25c0-8.284-6.716-15-15-15-8.285 0-15 6.716-15 15 0 10.785 15 25 15 25z" fill="#000"/><path d="M20.848 20.625a5 5 0 110-10 5 5 0 010 10zm0 2.5a7.5 7.5 0 100-15 7.5 7.5 0 000 15z" fill="#000"/></svg><svg fill="none" viewBox="0 0 41 41" id="phone" xmlns="http://www.w3.org/2000/svg"><path d="M9.982 4.18a1.695 1.695 0 00-2.537-.159L4.86 6.606c-1.208 1.209-1.653 2.921-1.125 4.423a43.919 43.919 0 0010.42 16.522 43.92 43.92 0 0016.521 10.42c1.503.527 3.215.083 4.424-1.126l2.584-2.585a1.695 1.695 0 00-.158-2.537l-5.765-4.484a1.695 1.695 0 00-1.452-.306L24.836 28.3a4.362 4.362 0 01-4.142-1.148l-6.142-6.141a4.362 4.362 0 01-1.147-4.143l1.368-5.472a1.695 1.695 0 00-.306-1.452L9.982 4.179zM5.56 2.135a4.362 4.362 0 016.527.406l4.485 5.765a4.362 4.362 0 01.788 3.736l-1.368 5.473a1.696 1.696 0 00.446 1.61l6.141 6.142c.421.42 1.033.59 1.61.446l5.473-1.368a4.362 4.362 0 013.736.788l5.766 4.484a4.362 4.362 0 01.406 6.528l-2.585 2.585c-1.85 1.85-4.615 2.661-7.193 1.755a46.586 46.586 0 01-17.523-11.05 46.585 46.585 0 01-11.05-17.522C.314 9.336 1.126 6.57 2.976 4.72L5.56 2.136z" fill="#000"/></svg><svg fill="none" viewBox="0 0 26 46" id="smartphone" xmlns="http://www.w3.org/2000/svg"><path d="M20.389 3.594c1.38 0 2.5 1.249 2.5 2.79v33.48c0 1.541-1.12 2.79-2.5 2.79h-15c-1.38 0-2.5-1.249-2.5-2.79V6.384c0-1.541 1.12-2.79 2.5-2.79h15zm-15-2.79c-2.762 0-5 2.498-5 5.58v33.48c0 3.082 2.238 5.58 5 5.58h15c2.761 0 5-2.498 5-5.58V6.384c0-3.082-2.239-5.58-5-5.58h-15z" fill="#000"/><path d="M12.889 39.864c1.38 0 2.5-1.249 2.5-2.79 0-1.54-1.12-2.79-2.5-2.79s-2.5 1.25-2.5 2.79c0 1.541 1.12 2.79 2.5 2.79z" fill="#000"/></svg><svg fill="none" viewBox="0 0 41 41" id="tg" xmlns="http://www.w3.org/2000/svg"><circle cx="20.754" cy="20.296" r="20" fill="#5AA1E3"/><path d="M26.253 15.084l-13.298 5.128c-.907.364-.902.87-.166 1.096l3.414 1.065 7.899-4.984c.373-.227.714-.105.434.144l-6.4 5.776h-.001.001l-.235 3.52c.345 0 .497-.159.69-.345l1.659-1.613 3.449 2.548c.636.35 1.093.17 1.25-.589l2.265-10.67c.232-.93-.355-1.35-.961-1.076z" fill="#fff"/></svg><svg fill="none" viewBox="0 0 32 28" id="wallet" xmlns="http://www.w3.org/2000/svg"><path d="M23.726.667c1.775-.42 3.495.852 3.495 2.587V5.42h.937c1.553 0 2.813 1.194 2.813 2.667v15.999c0 1.472-1.26 2.666-2.813 2.666H3.783c-1.553 0-2.812-1.194-2.812-2.666v-16c0-1.432 1.191-2.6 2.686-2.663L23.727.667zM11.4 5.42h13.947V3.254c0-.578-.573-1.003-1.165-.863l-12.782 3.03zM3.783 7.2c-.518 0-.937.398-.937.889v15.999c0 .49.42.889.937.889h24.375c.518 0 .938-.398.938-.89V8.089c0-.491-.42-.89-.938-.89H3.783z" fill="#000" stroke="#000"/></svg><svg fill="none" viewBox="0 0 41 41" id="whatsapp" xmlns="http://www.w3.org/2000/svg"><circle cx="20.683" cy="20.296" r="19" fill="#34BA39" stroke="#34BA39" stroke-width="2"/><g clip-path="url(#mclip0_7_317)"><path fill-rule="evenodd" clip-rule="evenodd" d="M25.47 21.682c-.236-.118-1.393-.687-1.608-.766-.215-.078-.372-.117-.53.119-.156.234-.607.765-.744.921-.137.158-.274.177-.51.06-.235-.119-.993-.367-1.892-1.168-.699-.624-1.171-1.394-1.308-1.63-.137-.235-.015-.363.103-.48.106-.105.235-.274.353-.411.118-.138.157-.236.235-.394.08-.157.04-.294-.02-.412-.058-.117-.529-1.276-.725-1.747-.19-.458-.385-.396-.529-.403a10.227 10.227 0 00-.451-.008.862.862 0 00-.627.294c-.216.235-.823.804-.823 1.963 0 1.157.842 2.276.96 2.433.118.157 1.658 2.534 4.018 3.552.562.243 1 .388 1.341.495.564.18 1.077.155 1.482.094.452-.068 1.392-.57 1.588-1.119.196-.55.196-1.02.137-1.119-.058-.098-.215-.156-.45-.274zm-4.292 5.86h-.004a7.815 7.815 0 01-3.983-1.09l-.285-.17-2.963.777.791-2.887-.186-.297a7.808 7.808 0 01-1.196-4.164c.002-4.314 3.512-7.825 7.829-7.825a7.77 7.77 0 015.532 2.295 7.78 7.78 0 012.29 5.536c-.002 4.314-3.512 7.825-7.825 7.825zm6.66-14.485a9.352 9.352 0 00-6.661-2.761c-5.189 0-9.413 4.224-9.415 9.414 0 1.66.432 3.28 1.257 4.707l-1.336 4.879 4.99-1.31a9.405 9.405 0 004.5 1.147h.005c5.188 0 9.412-4.224 9.414-9.415a9.36 9.36 0 00-2.755-6.66z" fill="#fff"/></g><defs><clipPath id="mclip0_7_317"><path fill="#fff" transform="translate(11.683 10.296)" d="M0 0h19v19H0z"/></clipPath></defs></svg></svg>