<svg width="26" height="26" viewBox="0 0 26 26" fill="none" xmlns="http://www.w3.org/2000/svg">
<path d="M22.3661 10.4806C21.7871 8.24067 20.4494 6.27077 18.5809 4.90656C16.7123 3.54235 14.4286 2.86823 12.1187 2.99908C9.80889 3.12992 7.61586 4.05762 5.91333 5.62412C4.2108 7.19061 3.1041 9.29898 2.7818 11.59C2.4595 13.881 2.94154 16.2128 4.14579 18.1883C5.35003 20.1637 7.20198 21.6604 9.38607 22.4235C11.5702 23.1866 13.9513 23.1687 16.1237 22.373C18.2961 21.5773 20.1254 20.0529 21.2999 18.0596L19.7021 17.1182C18.7454 18.7418 17.2554 19.9834 15.4858 20.6316C13.7163 21.2797 11.7768 21.2943 9.99774 20.6727C8.2187 20.0512 6.7102 18.832 5.72929 17.2229C4.74837 15.6139 4.35573 13.7144 4.61825 11.8483C4.88078 9.98221 5.78224 8.26485 7.16903 6.98887C8.55582 5.71288 10.3421 4.95723 12.2236 4.85065C14.1051 4.74407 15.9653 5.29317 17.4873 6.40438C19.0094 7.51559 20.099 9.12017 20.5706 10.9447L22.3661 10.4806Z" fill="#78C23E"/>
<path d="M14.6279 8.82129L21.3234 11.0953L23.5974 4.39987" stroke="#78C23E" stroke-width="2"/>
</svg>
