<svg width="132" height="82" viewBox="0 0 132 82" fill="none" xmlns="http://www.w3.org/2000/svg">
<path d="M129.169 73.6895L108.915 45.2253V19.498H93.2746V31.5406L83.4216 19.498" stroke="black" stroke-width="4" stroke-linecap="round"/>
<line x1="76.6528" y1="13.6172" x2="78.6528" y2="13.6172" stroke="black" stroke-width="4" stroke-linecap="round"/>
<path d="M74.7003 11.3535C74.1468 -1.44257 63.7842 2.80787 61.5723 4.76803C59.3604 6.72818 16.12 58.175 16.12 58.175C16.12 58.175 41.2837 59.6669 51.7264 58.175C62.1691 56.6831 74.7003 50.1267 74.7003 36.6929C74.7003 23.259 75.2537 24.1496 74.7003 11.3535Z" fill="url(#paint0_linear_7_254)"/>
<path d="M2.19824 73.6898L16.12 58.175M16.12 58.175C16.12 58.175 59.3604 6.72818 61.5723 4.76803C63.7842 2.80787 74.1468 -1.44257 74.7003 11.3535C75.2537 24.1496 74.7003 23.259 74.7003 36.6929C74.7003 50.1267 62.1691 56.6831 51.7264 58.175C41.2837 59.6669 16.12 58.175 16.12 58.175Z" stroke="black" stroke-width="4" stroke-linecap="round"/>
<path d="M74.8265 33.378C74.8265 33.378 66.122 29.5481 54.9801 37.9043C43.8382 46.2606 46.2756 58.7953 46.2756 58.7953" stroke="black" stroke-width="4"/>
<circle cx="66.9204" cy="13.3975" r="3" fill="black"/>
<path d="M26.9944 66.0319C26.4784 66.0319 26.0164 66.1339 25.6084 66.3379C25.2124 66.5419 24.8764 66.8359 24.6004 67.2199C24.3244 67.5919 24.1144 68.0479 23.9704 68.5879C23.8384 69.1279 23.7724 69.7339 23.7724 70.4059C23.7724 71.3179 23.8804 72.0979 24.0964 72.7459C24.3244 73.3819 24.6784 73.8679 25.1584 74.2039C25.6384 74.5399 26.2504 74.7079 26.9944 74.7079C27.5224 74.7079 28.0444 74.6479 28.5604 74.5279C29.0884 74.4079 29.6584 74.2399 30.2704 74.0239V76.3099C29.7064 76.5379 29.1484 76.7059 28.5964 76.8139C28.0444 76.9219 27.4264 76.9759 26.7424 76.9759C25.4224 76.9759 24.3304 76.7059 23.4664 76.1659C22.6144 75.6139 21.9844 74.8459 21.5764 73.8619C21.1684 72.8659 20.9644 71.7079 20.9644 70.3879C20.9644 69.4159 21.0964 68.5279 21.3604 67.7239C21.6244 66.9079 22.0084 66.2059 22.5124 65.6179C23.0284 65.0299 23.6584 64.5739 24.4024 64.2499C25.1584 63.9259 26.0224 63.7639 26.9944 63.7639C27.6304 63.7639 28.2664 63.8479 28.9024 64.0159C29.5504 64.1719 30.1684 64.3879 30.7564 64.6639L29.8744 66.8779C29.3944 66.6499 28.9084 66.4519 28.4164 66.2839C27.9364 66.1159 27.4624 66.0319 26.9944 66.0319ZM35.5213 63.9439H37.9693V70.1539C37.9693 70.4539 37.9633 70.7899 37.9513 71.1619C37.9393 71.5339 37.9273 71.8999 37.9153 72.2599C37.9033 72.6079 37.8913 72.9139 37.8793 73.1779C37.8673 73.4299 37.8553 73.6039 37.8433 73.6999H37.8973L43.8373 63.9439H47.0953V76.7959H44.6653V70.6219C44.6653 70.2979 44.6713 69.9439 44.6833 69.5599C44.6953 69.1639 44.7073 68.7859 44.7193 68.4259C44.7433 68.0659 44.7613 67.7539 44.7733 67.4899C44.7973 67.2139 44.8153 67.0339 44.8273 66.9499H44.7553L38.7973 76.7959H35.5213V63.9439ZM63.3897 76.7959H60.6717V71.2519H55.5777V76.7959H52.8597V63.9439H55.5777V68.9839H60.6717V63.9439H63.3897V76.7959ZM69.1434 63.9439H71.5914V70.1539C71.5914 70.4539 71.5854 70.7899 71.5734 71.1619C71.5614 71.5339 71.5494 71.8999 71.5374 72.2599C71.5254 72.6079 71.5134 72.9139 71.5014 73.1779C71.4894 73.4299 71.4774 73.6039 71.4654 73.6999H71.5194L77.4594 63.9439H80.7174V76.7959H78.2874V70.6219C78.2874 70.2979 78.2934 69.9439 78.3054 69.5599C78.3174 69.1639 78.3294 68.7859 78.3414 68.4259C78.3654 68.0659 78.3834 67.7539 78.3954 67.4899C78.4194 67.2139 78.4374 67.0339 78.4494 66.9499H78.3774L72.4194 76.7959H69.1434V63.9439ZM98.5597 74.6359V80.5399H95.9317V76.7959H86.4817V63.9439H89.1997V74.5279H93.9337V63.9439H96.6517V74.6359H98.5597ZM110.93 76.7959L109.994 73.7359H105.314L104.378 76.7959H101.444L105.98 63.8899H109.31L113.864 76.7959H110.93ZM108.41 68.4619C108.35 68.2579 108.272 67.9999 108.176 67.6879C108.08 67.3759 107.984 67.0579 107.888 66.7339C107.792 66.4099 107.714 66.1279 107.654 65.8879C107.594 66.1279 107.51 66.4279 107.402 66.7879C107.306 67.1359 107.21 67.4719 107.114 67.7959C107.03 68.1079 106.964 68.3299 106.916 68.4619L105.998 71.4499H109.346L108.41 68.4619Z" fill="black"/>
<path d="M56.2086 38.8077C61.7216 35.0314 72.2644 34.6465 72.2644 34.6465C72.2644 34.6465 72.5165 42.6873 69.3198 47.333C64.084 54.942 48.2149 56.3549 48.2149 56.3549C48.2149 56.3549 49.4027 43.4695 56.2086 38.8077Z" fill="url(#paint1_radial_7_254)" stroke="#FFF16A" stroke-linecap="round"/>
<defs>
<linearGradient id="paint0_linear_7_254" x1="38.5722" y1="2.49121" x2="38.5722" y2="73.6898" gradientUnits="userSpaceOnUse">
<stop stop-color="#C7F19D"/>
<stop offset="1" stop-color="#B9D7F3" stop-opacity="0.35"/>
</linearGradient>
<radialGradient id="paint1_radial_7_254" cx="0" cy="0" r="1" gradientUnits="userSpaceOnUse" gradientTransform="translate(60.3364 45.3916) rotate(126.714) scale(16.8122 20.0854)">
<stop stop-color="white"/>
<stop offset="0.447917" stop-color="#FFF612" stop-opacity="0.61"/>
<stop offset="0.953125" stop-color="#FFF069"/>
</radialGradient>
</defs>
</svg>
