<svg width="113" height="76" viewBox="0 0 113 76" fill="none" xmlns="http://www.w3.org/2000/svg">
<path d="M23.4873 38.2285H90.0196V61.7285C90.0196 69.4605 83.7515 75.7285 76.0196 75.7285H37.4873C29.7553 75.7285 23.4873 69.4605 23.4873 61.7285V38.2285Z" fill="#FFEC3D"/>
<path d="M65.8262 43.0674H80.3423V62.2609C80.3423 65.0224 78.1037 67.2609 75.3423 67.2609H70.8262C68.0647 67.2609 65.8262 65.0224 65.8262 62.2609V43.0674Z" fill="#B7BCC1"/>
<path d="M39.2129 32.1797H53.729V62.2603C53.729 65.0218 51.4904 67.2603 48.729 67.2603H44.2129C41.4515 67.2603 39.2129 65.0218 39.2129 62.2603V32.1797Z" fill="#726F71"/>
<circle cx="46.4711" cy="18.874" r="16.9355" fill="#726F71"/>
<path d="M70.0601 14.1989V43.0671H76.1085V14.1989L77.923 8.9501L76.1085 4.35742H70.0601L68.2456 8.9501L70.0601 14.1989Z" fill="#555254"/>
<path d="M46.4712 23.7124L40.4229 20.6882V1.93819V1.33335V0.728516H51.9148V20.6882L46.4712 23.7124Z" fill="white"/>
<path fill-rule="evenodd" clip-rule="evenodd" d="M14.5844 43.0674H0.503418V57.1484H0.50352V50.1082C4.38333 50.1082 7.53016 53.2465 7.54397 57.1231C7.55776 53.2548 10.6911 50.1217 14.5594 50.1083C10.6912 50.0948 7.55792 46.9618 7.54397 43.0937C7.52979 46.97 4.3831 50.1079 0.50352 50.1079V43.0674H7.54402V43.0678H14.5844V43.0674Z" fill="#D3D4D5"/>
<path fill-rule="evenodd" clip-rule="evenodd" d="M82.7612 22.8491C90.9568 22.8487 97.603 16.2149 97.6233 8.02398C97.6436 16.2152 104.29 22.8491 112.486 22.8491V7.98633H112.487V37.712H112.486V22.8494C104.278 22.8494 97.6234 29.5036 97.6232 37.712H97.6229C97.6228 29.504 90.9691 22.8501 82.7612 22.8494V22.8491Z" fill="#D3D4D5"/>
</svg>
