<svg width="106" height="75" viewBox="0 0 106 75" fill="none" xmlns="http://www.w3.org/2000/svg">
<rect x="45.0959" y="3.23242" width="11.7207" height="9.37653" rx="2.34413" fill="#726F71"/>
<rect x="68.5295" y="9.66895" width="5.26259" height="7.01679" rx="0.877099" transform="rotate(30 68.5295 9.66895)" fill="#726F71"/>
<path d="M67.1943 8.68049C67.4365 8.26098 67.9729 8.11724 68.3924 8.35945L74.4062 11.8315C74.8257 12.0737 74.9694 12.6101 74.7272 13.0296L73.123 15.8082L65.5901 11.459L67.1943 8.68049Z" fill="#726F71"/>
<rect width="5.26259" height="7.01679" rx="0.877099" transform="matrix(-0.866025 0.5 0.5 0.866025 31.8069 9.94727)" fill="#726F71"/>
<path d="M33.1427 8.68049C32.9004 8.26098 32.364 8.11724 31.9445 8.35945L25.9307 11.8315C25.5112 12.0737 25.3675 12.6101 25.6097 13.0296L27.2139 15.8082L34.7468 11.459L33.1427 8.68049Z" fill="#726F71"/>
<circle cx="50.3707" cy="42.4965" r="32.2318" fill="#FFEC3D"/>
<circle cx="50.3707" cy="42.4965" r="29.1051" stroke="#EB9D55" stroke-opacity="0.3" stroke-width="6.25352"/>
<path fill-rule="evenodd" clip-rule="evenodd" d="M92.6974 0.728516C92.6975 7.9082 98.5178 13.7285 105.697 13.7285V0.728516H105.698V26.7285H105.697V13.7288C98.5179 13.7288 92.6976 19.549 92.6974 26.7285H92.6968C92.6966 19.5492 86.8768 13.7292 79.6975 13.7288V13.7285C86.8769 13.7282 92.6969 7.908 92.6969 0.728516H92.6974Z" fill="#D3D4D5"/>
<path fill-rule="evenodd" clip-rule="evenodd" d="M0.69751 58.3177V58.3186C4.57919 58.3188 7.72607 61.4647 7.72784 65.346C7.7296 61.4646 10.8767 58.3186 14.7585 58.3186V65.3484H14.7588V51.2871H7.72765C7.72765 55.1699 4.58019 58.3175 0.69751 58.3177ZM7.72783 51.2875H14.7585V58.3181C10.8756 58.3181 7.72783 55.1704 7.72783 51.2875Z" fill="#D3D4D5"/>
<path d="M33.3752 43.0828H53.8864C53.8864 43.0828 62.0615 29.3302 68.0119 19.4893" stroke="#726F71" stroke-width="6.25352"/>
</svg>
