<svg width="74" height="76" viewBox="0 0 74 76" fill="none" xmlns="http://www.w3.org/2000/svg">
<path fill-rule="evenodd" clip-rule="evenodd" d="M62.8606 0.728516H62.8606V6.16356C65.8614 6.16356 68.2941 8.59552 68.2954 11.596C68.2967 8.59552 70.7294 6.16356 73.7302 6.16356C70.7326 6.16356 68.3018 3.73672 68.2954 0.740605C68.2889 3.73659 65.8581 6.1633 62.8606 6.1633V0.728516ZM68.2954 0.728516V0.728781H73.7302L73.7302 0.728516H68.2954Z" fill="#D3D4D5"/>
<path fill-rule="evenodd" clip-rule="evenodd" d="M11.23 30.0763V30.0762H0.904053V40.4025C6.60662 40.4029 11.2294 45.0257 11.2295 50.7283H11.23C11.2302 45.0255 15.8533 40.4025 21.5561 40.4025V50.7283H21.5562V30.0762H21.5561V40.4023C15.8716 40.4023 11.2599 35.8089 11.2302 30.1313C11.2005 35.8089 6.58881 40.4024 0.904243 40.4024V30.0763H11.23Z" fill="#D3D4D5"/>
<path d="M3.078 18.1631C3.078 11.5357 8.45059 6.16309 15.078 6.16309H53.0345C59.6619 6.16309 65.0345 11.5357 65.0345 18.1631V26.8153H3.078V18.1631Z" fill="#FFEC3D"/>
<path d="M29.1649 18.1631C29.1649 11.5357 34.5375 6.16309 41.1649 6.16309H53.0345C59.6619 6.16309 65.0345 11.5357 65.0345 18.1631V64.8587H29.1649V18.1631Z" fill="#FFEC3D"/>
<path d="M3.078 18.1631C3.078 11.5357 8.45059 6.16309 15.078 6.16309H17.165C23.7924 6.16309 29.165 11.5357 29.165 18.1631V26.8153H3.078V18.1631Z" fill="#F9D444"/>
<rect x="37.8606" y="21.3809" width="33.6957" height="4.8913" fill="#726F71"/>
<rect x="37.8606" y="31.1631" width="33.6957" height="4.8913" fill="#555254"/>
<rect x="37.8606" y="40.9463" width="22.8261" height="4.8913" fill="#555254"/>
<path d="M40.0345 75.7289V64.8594H48.7302V75.7289L44.3824 71.3811L40.0345 75.7289Z" fill="#726F71"/>
<circle cx="44.3823" cy="60.511" r="6.52174" fill="#D3D4D5"/>
</svg>
