<svg width="91" height="76" viewBox="0 0 91 76" fill="none" xmlns="http://www.w3.org/2000/svg">
<path d="M13.2473 54.8144C13.2473 47.9109 18.8438 42.3145 25.7473 42.3145H70.1611C77.0647 42.3145 82.6611 47.9109 82.6611 54.8145V74.2282H13.2473V54.8144Z" fill="#FFEC3D" stroke="#F9D444" stroke-width="3"/>
<path fill-rule="evenodd" clip-rule="evenodd" d="M90.6289 30.4697H78.9886V42.11H78.9888V36.2901C82.1955 36.2901 84.7965 38.8834 84.8089 42.0871C84.8214 38.8834 87.4223 36.2902 90.6289 36.2901V36.2901C87.4146 36.29 84.8089 33.6843 84.8089 30.4699H90.6289V30.4697ZM84.8089 30.4699C84.8088 33.6842 82.2031 36.2899 78.9887 36.2899V30.4698H84.8089L84.8089 30.4699Z" fill="#D3D4D5"/>
<path fill-rule="evenodd" clip-rule="evenodd" d="M12.3953 12.3662C12.3953 19.1519 17.8962 24.6528 24.6819 24.6528V12.3662H24.6826V36.9394H24.6819V24.653C17.8963 24.653 12.3954 30.1538 12.3953 36.9394H12.395C12.3949 30.1541 6.89457 24.6535 0.109375 24.653V24.6529C6.89472 24.6524 12.3952 19.1517 12.3952 12.3663H0.109375V12.3662H12.3953Z" fill="#D3D4D5"/>
<circle cx="48.6008" cy="18.1854" r="15.9569" fill="#FFEC3D" stroke="#F9D444" stroke-width="3"/>
<rect x="27.2645" y="62.7979" width="41.3793" height="12.931" fill="#726F71"/>
<rect x="62.1783" y="40.8145" width="6.46552" height="34.9138" fill="#726F71"/>
<rect x="27.2645" y="40.8145" width="6.46552" height="34.9138" fill="#726F71"/>
</svg>
